<?xml version="1.0" encoding="utf-8"?>
<!-- Generator: Adobe Illustrator 23.0.0, SVG Export Plug-In . SVG Version: 6.00 Build 0)  -->
<svg version="1.1" id="Layer_1" xmlns="http://www.w3.org/2000/svg" xmlns:xlink="http://www.w3.org/1999/xlink" x="0px" y="0px"
	 viewBox="0 0 128 128" style="enable-background:new 0 0 128 128;" xml:space="preserve">
<style type="text/css">
	.st0{fill-rule:evenodd;clip-rule:evenodd;fill:#2163E8;}
	.st1{opacity:0.8;fill-rule:evenodd;clip-rule:evenodd;fill:#FFFFFF;enable-background:new    ;}
</style>
<g id="logo_icon">
	<path class="st0" d="M32.99,102.17l-0.88-0.02c-5.17-0.1-10.39-0.2-15.67-0.3c-6.15,0.16-11.61-4.04-13.23-10.16
		c-0.23-0.99-0.33-2.01-0.31-3.03C2.95,65.59,3,41.92,3.07,17.65C2.84,12.12,6.3,7.14,11.46,5.58c1.86-0.65,3.84-0.84,5.78-0.56
		c34.97,3.94,67.66,7.61,98.29,11.07c5.47,0.7,9.76,5.18,10.37,10.83c0.11,0.96,0.13,1.93,0.06,2.9
		c-1.44,21.34-2.86,42.19-4.26,62.58c-0.18,4.55-2.9,8.58-6.97,10.33c-1.5,0.69-3.13,1-4.77,0.92c-16.96-0.33-34.55-0.67-52.77-1.03
		c-0.5-0.04-0.99,0.17-1.33,0.55c-6.43,6.62-12.9,13.27-19.41,19.95c-0.71,0.98-2.06,1.18-3.01,0.44c-0.26-0.2-0.48-0.47-0.63-0.77
		c-0.14-0.42-0.2-0.86-0.17-1.31c0.11-6.1,0.22-12.25,0.35-18.44C32.98,102.77,32.98,102.51,32.99,102.17z"/>
	<path id="_" class="st1" d="M38.66,60.67c-0.22,9.58,3.7,14.52,11.63,14.88c7.93,0.36,12-3.36,12.27-11.22
		c0.27-7.7-3.21-11.83-10.51-12.33c1.26-4.33,4.22-7.93,8.16-9.9l0.3-8.82C46.36,36.36,38.99,45.57,38.66,60.67L38.66,60.67
		L38.66,60.67z M93.42,50.3c0.48-9.28-2.98-14.29-10.47-14.95c-7.74-0.68-11.81,3-12.13,11.02c-0.3,7.72,3.07,11.8,10.04,12.25
		c-1.25,4.18-4.1,7.66-7.88,9.65l-0.34,8.31C85.84,73.28,92.68,64.59,93.42,50.3L93.42,50.3L93.42,50.3z"/>
</g>
</svg>
