<?xml version="1.0" encoding="utf-8"?>
<!-- Generator: Adobe Illustrator 23.0.0, SVG Export Plug-In . SVG Version: 6.00 Build 0)  -->
<svg version="1.1" id="Shape_logo" xmlns="http://www.w3.org/2000/svg" xmlns:xlink="http://www.w3.org/1999/xlink" x="0px" y="0px"
	 viewBox="0 0 242.9 52.4" style="enable-background:new 0 0 242.9 52.4;" xml:space="preserve">
<style type="text/css">
	.st0{fill-rule:evenodd;clip-rule:evenodd;fill:#FFFFFF;}
	.st1{fill-rule:evenodd;clip-rule:evenodd;fill:#2163E8;}
	.st2{opacity:0.8;fill-rule:evenodd;clip-rule:evenodd;fill:#FFFFFF;enable-background:new    ;}
	.st3{fill:#FFFFFF;}
</style>
<path id="Shape" class="st0" d="M98-58.1c-1.2-1.6-1.8-3.5-1.6-5.5c-0.1-1.9,0.5-3.8,1.7-5.3c1-1.1,2.5-1.7,4-1.8c1.6,0,3,0.7,4,1.9
	c1.2,1.6,1.7,3.5,1.6,5.4c0.1,1.8-0.5,3.6-1.6,5.1c-0.9,1.2-2.4,2-4,2C100.5-56.2,99-56.9,98-58.1z M90.9-84.1v32.2h5.5v-3.6
	c1.4,2.5,4.1,4,7,3.9c2.8,0.1,5.5-1.2,7.2-3.5c1.8-2.4,2.8-5.4,2.7-8.4c0-3.6-0.9-6.5-2.8-8.7c-1.8-2.1-4.4-3.3-7.1-3.2
	c-2.8-0.1-5.5,1.4-6.9,3.8v-12.6H90.9L90.9-84.1z M123.7-51.8v-32.2h-5.5v32.2H123.7L123.7-51.8z M147.9-54.9c2-2.4,3.1-5.5,2.9-8.6
	c0.1-3.1-0.9-6.1-2.9-8.5c-1.9-2.2-4.7-3.4-8.3-3.4c-3.1-0.1-6,1.1-8.1,3.4c-2.1,2.4-3.2,5.5-3.1,8.7c-0.1,3.1,0.9,6.1,2.9,8.4
	C136.1-50.4,143.4-50.4,147.9-54.9L147.9-54.9z M143.9-68.7c0.9,1.7,1.4,3.5,1.3,5.4c0.1,1.9-0.4,3.7-1.4,5.3
	c-1.5,2.2-4.6,2.8-6.8,1.2c-0.5-0.3-0.9-0.8-1.3-1.3c-1-1.6-1.5-3.5-1.4-5.3c-0.1-1.9,0.4-3.8,1.4-5.4c0.8-1.4,2.4-2.2,4-2.1
	C141.4-71,143-70.2,143.9-68.7L143.9-68.7z M161.6-58.8c-1-1.4-1.5-3.2-1.4-4.9c-0.1-1.8,0.4-3.5,1.4-5c0.9-1.2,2.3-1.9,3.7-1.8
	c1.4,0,2.8,0.6,3.7,1.7c1,1.2,1.5,3,1.5,5.4c0.1,1.7-0.5,3.3-1.5,4.6c-0.9,1.1-2.3,1.8-3.7,1.8C163.8-57,162.5-57.7,161.6-58.8
	L161.6-58.8z M170.5-71.6c-1.3-2.3-3.8-3.7-6.4-3.6c-2.7-0.1-5.3,1.1-6.9,3.3c-1.8,2.4-2.7,5.3-2.6,8.3c0,3.6,0.9,6.4,2.8,8.3
	c1.7,1.8,4.1,2.9,6.6,2.9c2.7,0.2,5.2-1.1,6.6-3.4v2c0,4-2.1,6-6.3,6c-2.6,0.1-5.2-0.7-7.4-2.2v5.6c2.5,1.1,5.2,1.7,8,1.6
	c2.9,0.1,5.8-0.9,8-2.8c2.1-1.8,3.2-4.6,3.2-8.2v-21h-5.5L170.5-71.6L170.5-71.6z M181-75v4.4h10.3l-10.7,14.7v4.1h17.6v-4.4h-11.4
	l10.8-14.9V-75H181L181-75z M208.7-51.8V-75h-5.5v23.1H208.7z M203.6-79.5c1.3,1.3,3.4,1.3,4.7,0c0.6-0.6,1-1.5,1-2.4
	c0-1.8-1.4-3.3-3.2-3.3s-3.3,1.4-3.3,3.2c0,0,0,0.1,0,0.1C202.7-81,203-80.2,203.6-79.5L203.6-79.5z M214.9-75v23.1h5.5v-12.4
	c-0.1-1.7,0.4-3.4,1.5-4.8c0.9-1.1,2.2-1.7,3.6-1.7c1.1-0.1,2.2,0.4,3,1.2c0.8,1,1.2,2.2,1.1,3.4v14.2h5.5v-15.4
	c0.1-2.2-0.6-4.3-2-5.9c-1.4-1.4-3.4-2.2-5.5-2.1c-3.4,0-5.8,1.4-7.1,4.2v-4L214.9-75L214.9-75z M244.8-65.3c0.2-1.6,0.8-3,1.8-4.2
	c0.9-0.9,2.1-1.4,3.4-1.4c1.2-0.1,2.4,0.4,3.3,1.3c0.8,1,1.2,2.3,1.2,3.6v0.7H244.8L244.8-65.3z M252.1-56c-1.7,0.1-3.3-0.4-4.7-1.3
	c-1.3-0.9-2.2-2.3-2.5-3.8h14.5c0.2-1.1,0.3-2.2,0.3-3.3c0-3.5-0.9-6.2-2.6-8c-1.9-1.9-4.5-2.9-7.2-2.7c-2.8-0.1-5.6,1.1-7.5,3.1
	c-2,2.1-3,5-3,8.7c-0.4,6.1,4.3,11.4,10.5,11.8c0.5,0,1,0,1.4,0c2.4,0.1,4.8-0.4,7-1.5v-4.7C256.5-56.6,254.3-56,252.1-56L252.1-56
	L252.1-56z"/>
<g id="logo_icon">
	<path class="st1" d="M13.7,42.8l-0.4,0c-2.3,0-4.7-0.1-7.1-0.1c-2.8,0.1-5.3-1.8-6-4.5C0,37.8,0,37.3,0,36.9C0,26.7,0,16.3,0.1,5.6
		C0,3.2,1.5,1,3.9,0.3C4.7,0,5.6-0.1,6.5,0.1c15.9,1.7,30.7,3.4,44.6,4.9c2.5,0.3,4.4,2.3,4.7,4.8c0.1,0.4,0.1,0.9,0,1.3
		c-0.7,9.4-1.3,18.6-1.9,27.5c-0.1,2-1.3,3.8-3.2,4.5c-0.7,0.3-1.4,0.4-2.2,0.4c-7.7-0.1-15.7-0.3-24-0.5c-0.2,0-0.5,0.1-0.6,0.2
		c-2.9,2.9-5.9,5.8-8.8,8.8c-0.3,0.4-0.9,0.5-1.4,0.2c-0.1-0.1-0.2-0.2-0.3-0.3c-0.1-0.2-0.1-0.4-0.1-0.6c0-2.7,0.1-5.4,0.2-8.1
		C13.7,43.1,13.7,43,13.7,42.8z"/>
	<path id="_" class="st2" d="M16.2,24.5c-0.1,4.2,1.7,6.4,5.3,6.6s5.4-1.5,5.6-4.9c0.1-3.4-1.5-5.2-4.8-5.4c0.6-1.9,1.9-3.5,3.7-4.4
		l0.1-3.9C19.7,13.8,16.4,17.9,16.2,24.5L16.2,24.5L16.2,24.5z M41.1,20c0.2-4.1-1.4-6.3-4.8-6.6c-3.5-0.3-5.4,1.3-5.5,4.9
		c-0.1,3.4,1.4,5.2,4.6,5.4c-0.6,1.8-1.9,3.4-3.6,4.2l-0.2,3.7C37.7,30.1,40.8,26.3,41.1,20L41.1,20L41.1,20z"/>
</g>
<g>
	<path class="st3" d="M63.7,34.5l3.6-4.3c2.1,1.8,4.3,2.6,6.3,2.6c0.8,0,1.4-0.3,1.4-0.8c0-0.6-0.3-0.8-3.1-1.8
		c-3.5-1.3-5.1-2.5-5.1-5.3c0-3.6,3.3-6.5,8.4-6.5c3.3,0,6.3,1.1,8.3,2.8l-3.6,4.3c-1.4-1.1-3.4-2.1-5.4-2.1c-0.8,0-1.4,0.2-1.4,0.7
		c0,0.5,0.4,0.7,3,1.6c3.2,1.2,5.2,2.5,5.2,5.4c0,3.8-3.1,6.7-8.5,6.7C69.2,37.8,66,36.5,63.7,34.5z"/>
	<path class="st3" d="M89.5,24.1H84l1.4-5.3h17.2l-1.4,5.3h-5.5l-3.6,13.4h-6.2L89.5,24.1z"/>
	<path class="st3" d="M107.5,18.7h6.2l2.8,18.8h-6.6l-0.3-2.5h-6.5l-1.6,2.5h-6.8L107.5,18.7z M109.2,30.5l-0.5-4.5l-2.9,4.5H109.2z
		"/>
	<path class="st3" d="M122,18.8h7.3c3.4,0,5.6,0.7,6.9,2c1,1,1.5,2.4,1.5,3.9c0,2.9-1.5,5.4-5.2,6.6l2.6,6.2h-6.7l-2.1-5.3h-1.5
		l-1.4,5.3H117L122,18.8z M128.1,27.7c2.1,0,3.2-1,3.2-2.1c0-0.4-0.1-0.7-0.4-1c-0.3-0.3-1-0.5-1.8-0.5h-2.2l-1,3.7H128.1z"/>
	<path class="st3" d="M151.2,24.1h-5.5l1.4-5.3h17.2l-1.4,5.3h-5.5l-3.6,13.4h-6.2L151.2,24.1z"/>
	<path class="st3" d="M162.6,29.4c0-5.8,4.7-11,11-11c5.5,0,9.3,3.7,9.3,8.5c0,5.8-4.7,11-11,11C166.5,37.8,162.6,34.2,162.6,29.4z
		 M176.6,27.4c0-2-1.2-3.5-3.4-3.5c-2.6,0-4.3,2.6-4.3,4.9c0,2,1.2,3.5,3.4,3.5C175,32.3,176.6,29.8,176.6,27.4z"/>
	<path class="st3" d="M186.9,18.8h6.6c3.6,0,5.9,1,7.3,2.4c1.4,1.4,2,3.2,2,5.5c0,2.8-1,5.3-3.1,7.4c-2.2,2.2-5.4,3.4-9.8,3.4h-8.1
		L186.9,18.8z M190.7,32c1.9,0,3.5-0.6,4.5-1.5c0.8-0.8,1.3-2,1.3-3.2c0-1-0.3-1.7-0.8-2.2c-0.6-0.6-1.5-0.9-3-0.9h-1l-2.1,7.8
		H190.7z"/>
	<path class="st3" d="M213.3,18.7h6.2l2.8,18.8h-6.6l-0.3-2.5h-6.5l-1.6,2.5h-6.8L213.3,18.7z M215,30.5l-0.5-4.5l-2.9,4.5H215z"/>
	<path class="st3" d="M226.6,30.3L223,18.8h6.6l1.5,6.2l4.9-6.2h7.4l-10.6,12.3l-1.7,6.4h-6.2L226.6,30.3z"/>
</g>
</svg>
