<?xml version="1.0" encoding="utf-8"?>
<!-- Generator: Adobe Illustrator 23.0.0, SVG Export Plug-In . SVG Version: 6.00 Build 0)  -->
<svg version="1.1" id="Shape_logo" xmlns="http://www.w3.org/2000/svg" xmlns:xlink="http://www.w3.org/1999/xlink" x="0px" y="0px"
	 viewBox="0 0 159.9 34.5" style="enable-background:new 0 0 159.9 34.5;" xml:space="preserve">
<style type="text/css">
	.st0{fill-rule:evenodd;clip-rule:evenodd;fill:#2163E8;}
	.st1{opacity:0.8;fill-rule:evenodd;clip-rule:evenodd;fill:#FFFFFF;enable-background:new    ;}
</style>
<g id="logo_icon">
	<path class="st0" d="M9,28.2H8.7L4,28.1c-1.8,0-3.5-1.2-4-2.9C0,24.9,0,24.6,0,24.3C0,17.6,0,10.7,0,3.7C0,2.1,1,0.7,2.5,0.2
		C3.1,0,3.7,0,4.3,0c10.5,1.1,20.2,2.2,29.4,3.2c1.6,0.2,2.9,1.5,3.1,3.1c0,0.3,0,0.6,0,0.8c-0.4,6.2-0.9,12.2-1.3,18.1
		c-0.1,1.3-0.9,2.5-2.1,3c-0.4,0.2-0.9,0.3-1.4,0.3c-5.1-0.1-10.3-0.2-15.8-0.3c-0.2,0-0.3,0-0.4,0.2c-1.9,1.9-3.9,3.8-5.8,5.8
		c-0.2,0.3-0.6,0.3-0.9,0.1C9,34.3,9,34.3,8.9,34.2c0-0.1-0.1-0.2,0-0.4c0-1.8,0.1-3.6,0.1-5.3C9,28.4,9,28.3,9,28.2z"/>
	<path id="_" class="st1" d="M10.7,16.2c-0.1,2.8,1.1,4.2,3.5,4.3s3.6-1,3.7-3.3c0.1-2.2-1-3.4-3.1-3.6c0.4-1.3,1.3-2.3,2.4-2.9
		l0.1-2.6C13,9.1,10.8,11.8,10.7,16.2L10.7,16.2L10.7,16.2z M27.1,13.2c0.1-2.7-0.9-4.1-3.1-4.3c-2.3-0.2-3.5,0.9-3.6,3.2
		c-0.1,2.2,0.9,3.4,3,3.6c-0.4,1.2-1.2,2.2-2.4,2.8l-0.1,2.4C24.8,19.8,26.8,17.3,27.1,13.2L27.1,13.2L27.1,13.2z"/>
</g>
<image style="display:none;overflow:visible;" width="1280" height="729" xlink:href="logo.png"  transform="matrix(0.1301 0 0 0.1301 -2.3685 -36.5521)">
</image>
<g>
	<path d="M39.6,21.9l2.3-2.8c1.4,1.2,2.8,1.7,4.1,1.7c0.5,0,0.9-0.2,0.9-0.5c0-0.4-0.2-0.5-2-1.2c-2.3-0.8-3.3-1.6-3.3-3.4
		c0-2.3,2.2-4.3,5.5-4.3c2.2,0,4.1,0.7,5.4,1.8l-2.3,2.8c-0.9-0.7-2.2-1.4-3.5-1.4c-0.5,0-0.9,0.1-0.9,0.5c0,0.3,0.3,0.5,1.9,1.1
		c2.1,0.8,3.4,1.6,3.4,3.5c0,2.5-2,4.4-5.5,4.4C43.1,24.1,41.1,23.2,39.6,21.9z"/>
	<path d="M56.4,15.1h-3.6l0.9-3.4H65l-0.9,3.4h-3.6l-2.3,8.7h-4.1L56.4,15.1z"/>
	<path d="M68.1,11.6h4L74,23.9h-4.3l-0.2-1.6h-4.3l-1.1,1.6h-4.4L68.1,11.6z M69.3,19.3l-0.3-3l-1.9,3H69.3z"/>
	<path d="M77.6,11.7h4.7c2.2,0,3.7,0.5,4.5,1.3c0.7,0.7,1,1.6,1,2.5c0,1.9-1,3.5-3.4,4.3l1.7,4.1h-4.4l-1.4-3.5h-1l-0.9,3.5h-4.1
		L77.6,11.7z M81.6,17.5c1.4,0,2.1-0.6,2.1-1.4c0-0.3-0.1-0.5-0.3-0.6c-0.2-0.2-0.6-0.3-1.2-0.3h-1.4l-0.6,2.4H81.6z"/>
	<path d="M96.6,15.1H93l0.9-3.4h11.2l-0.9,3.4h-3.6l-2.3,8.7h-4.1L96.6,15.1z"/>
	<path d="M104.1,18.6c0-3.8,3.1-7.1,7.2-7.1c3.6,0,6.1,2.4,6.1,5.5c0,3.8-3.1,7.1-7.2,7.1C106.5,24.1,104.1,21.7,104.1,18.6z
		 M113.2,17.3c0-1.3-0.8-2.3-2.2-2.3c-1.7,0-2.8,1.7-2.8,3.2c0,1.3,0.8,2.3,2.2,2.3C112.1,20.5,113.2,18.9,113.2,17.3z"/>
	<path d="M119.9,11.7h4.3c2.4,0,3.8,0.6,4.8,1.6c0.9,0.9,1.3,2.1,1.3,3.6c0,1.8-0.7,3.5-2,4.8c-1.5,1.5-3.5,2.2-6.4,2.2h-5.3
		L119.9,11.7z M122.3,20.3c1.3,0,2.3-0.4,2.9-1c0.5-0.5,0.9-1.3,0.9-2.1c0-0.7-0.2-1.1-0.5-1.4c-0.4-0.4-1-0.6-2-0.6H123l-1.4,5.1
		H122.3z"/>
	<path d="M137,11.6h4l1.8,12.3h-4.3l-0.2-1.6h-4.3l-1.1,1.6h-4.4L137,11.6z M138.2,19.3l-0.3-3l-1.9,3H138.2z"/>
	<path d="M145.8,19.2l-2.4-7.5h4.3l1,4.1l3.2-4.1h4.8l-6.9,8l-1.1,4.1h-4.1L145.8,19.2z"/>
</g>
</svg>
