<?xml version="1.0" encoding="utf-8"?>
<!-- Generator: Adobe Illustrator 23.0.0, SVG Export Plug-In . SVG Version: 6.00 Build 0)  -->
<svg version="1.1" id="Shape_logo" xmlns="http://www.w3.org/2000/svg" xmlns:xlink="http://www.w3.org/1999/xlink" x="0px" y="0px"
	 viewBox="0 0 159.94 34.53" style="enable-background:new 0 0 159.94 34.53;" xml:space="preserve">
<style type="text/css">
	.st0{fill-rule:evenodd;clip-rule:evenodd;fill:#2163E8;}
	.st1{opacity:0.8;fill-rule:evenodd;clip-rule:evenodd;fill:#FFFFFF;enable-background:new    ;}
	.st2{fill:#FFFFFF;}
</style>
<g id="logo_icon">
	<path class="st0" d="M8.98,28.2H8.72l-4.69-0.09c-1.84,0.04-3.47-1.17-3.96-2.95c-0.07-0.29-0.1-0.58-0.09-0.88
		C0,17.6,0.01,10.74,0.04,3.7C-0.03,2.1,1,0.65,2.54,0.2C3.1,0.01,3.69-0.04,4.27,0.04c10.46,1.14,20.23,2.21,29.39,3.21
		c1.63,0.2,2.92,1.5,3.1,3.14c0.03,0.28,0.04,0.56,0.02,0.84c-0.43,6.19-0.86,12.23-1.27,18.14c-0.06,1.32-0.87,2.49-2.09,2.99
		c-0.45,0.2-0.94,0.29-1.42,0.27c-5.07-0.1-10.33-0.2-15.78-0.3c-0.15-0.01-0.3,0.05-0.4,0.16c-1.92,1.92-3.86,3.85-5.8,5.78
		c-0.21,0.28-0.62,0.34-0.9,0.13c-0.08-0.06-0.14-0.14-0.19-0.22c-0.04-0.12-0.06-0.25-0.05-0.38c0.03-1.77,0.06-3.55,0.1-5.35
		C8.98,28.37,8.98,28.3,8.98,28.2z"/>
	<path id="_" class="st1" d="M10.68,16.17c-0.06,2.78,1.11,4.21,3.48,4.31s3.59-0.97,3.67-3.25c0.08-2.23-0.96-3.43-3.14-3.57
		c0.38-1.26,1.26-2.3,2.44-2.87l0.09-2.55C12.98,9.13,10.77,11.79,10.68,16.17L10.68,16.17L10.68,16.17z M27.05,13.16
		c0.14-2.69-0.89-4.14-3.13-4.34c-2.31-0.2-3.53,0.87-3.63,3.2c-0.09,2.24,0.92,3.42,3,3.55c-0.37,1.21-1.22,2.22-2.36,2.8
		l-0.1,2.41C24.78,19.83,26.84,17.31,27.05,13.16L27.05,13.16L27.05,13.16z"/>
</g>
<g>
	<path class="st2" d="M42.26,21.92l2.33-2.78c1.39,1.18,2.8,1.72,4.11,1.72c0.54,0,0.89-0.19,0.89-0.54c0-0.38-0.23-0.5-2-1.17
		c-2.28-0.83-3.32-1.64-3.32-3.43c0-2.35,2.16-4.26,5.48-4.26c2.17,0,4.11,0.7,5.43,1.83l-2.33,2.78c-0.92-0.75-2.21-1.36-3.51-1.36
		c-0.54,0-0.89,0.14-0.89,0.49c0,0.35,0.28,0.45,1.95,1.06c2.09,0.78,3.39,1.6,3.39,3.5c0,2.45-2.04,4.37-5.51,4.37
		C45.83,24.13,43.74,23.26,42.26,21.92z"/>
	<path class="st2" d="M59.09,15.16h-3.58l0.92-3.44h11.24l-0.92,3.44h-3.58l-2.35,8.73h-4.07L59.09,15.16z"/>
	<path class="st2" d="M70.83,11.62h4.04l1.84,12.26h-4.33l-0.21-1.63h-4.26l-1.06,1.63h-4.44L70.83,11.62z M71.95,19.37l-0.33-2.96
		l-1.9,2.96H71.95z"/>
	<path class="st2" d="M80.27,11.71h4.75c2.24,0,3.67,0.49,4.49,1.3c0.68,0.68,0.96,1.57,0.96,2.54c0,1.9-0.97,3.53-3.39,4.28
		l1.69,4.05h-4.38l-1.36-3.48h-1.01l-0.94,3.48H77L80.27,11.71z M84.26,17.5c1.37,0,2.07-0.63,2.07-1.39c0-0.26-0.09-0.47-0.26-0.64
		c-0.23-0.23-0.63-0.35-1.2-0.35h-1.44l-0.64,2.38H84.26z"/>
	<path class="st2" d="M99.28,15.16h-3.58l0.92-3.44h11.24l-0.92,3.44h-3.58L101,23.89h-4.07L99.28,15.16z"/>
	<path class="st2" d="M106.73,18.62c0-3.77,3.08-7.15,7.17-7.15c3.57,0,6.05,2.4,6.05,5.51c0,3.77-3.08,7.15-7.17,7.15
		C109.22,24.13,106.73,21.73,106.73,18.62z M115.87,17.35c0-1.3-0.78-2.3-2.24-2.3c-1.71,0-2.8,1.67-2.8,3.2
		c0,1.3,0.78,2.3,2.24,2.3C114.77,20.55,115.87,18.88,115.87,17.35z"/>
	<path class="st2" d="M122.56,11.71h4.31c2.37,0,3.84,0.64,4.77,1.57c0.89,0.89,1.32,2.07,1.32,3.57c0,1.83-0.68,3.48-2,4.8
		c-1.46,1.46-3.55,2.24-6.38,2.24h-5.29L122.56,11.71z M125.03,20.34c1.25,0,2.3-0.37,2.92-0.99c0.5-0.5,0.87-1.32,0.87-2.07
		c0-0.68-0.17-1.08-0.5-1.41c-0.4-0.4-0.99-0.61-1.97-0.61h-0.68l-1.36,5.08H125.03z"/>
	<path class="st2" d="M139.72,11.62h4.04l1.84,12.26h-4.33l-0.21-1.63h-4.26l-1.06,1.63h-4.44L139.72,11.62z M140.84,19.37
		l-0.33-2.96l-1.9,2.96H140.84z"/>
	<path class="st2" d="M148.43,19.24l-2.38-7.53h4.28l0.99,4.07l3.17-4.07h4.82l-6.92,8.04l-1.11,4.14h-4.07L148.43,19.24z"/>
</g>
</svg>
